<svg xmlns="http://www.w3.org/2000/svg" viewBox="0 0 212.78 186.67"><g id="Layer_2" data-name="Layer 2"><g id="Layer_1-2" data-name="Layer 1"><path d="M205.36,78.92,171.09,64.81a6.71,6.71,0,0,1-2.91-2.69l-4-9.18a39.37,39.37,0,0,0-31.36-22.4L129,30.09a48,48,0,0,0-5.6-.45,194.13,194.13,0,0,1-.67-21.5,8.3,8.3,0,0,0-3.36-6.72A7.92,7.92,0,0,0,112,.53c-24.65,9.85-35.4,26.2-40.1,39.19l-.45.45C45,60.56,37.14,86.54,31.76,104c-.45,1.8-1.12,3.14-1.57,4.71,0,.22,0,.22-.22.45-1.12,4.7-12.54,32.25-27.1,43.68a7.8,7.8,0,0,0,9.85,12.09C31.54,149.71,43.63,118.35,45,113.2c.45-1.56,1.12-3.13,1.57-4.93C51.48,91.92,58.19,69.75,80.82,52.5a9.26,9.26,0,0,1,1.57-1.13,6.79,6.79,0,0,0,3.36-4.48c2.46-8.06,8.06-18.36,20.83-26.43.45,17.25,3.13,20.16,4.7,21.73a8.47,8.47,0,0,0,6.27,2.68c3.14,0,6.5.23,9.64.45l3.81.45c8.06.9,15.23,5.83,18.36,13l4,9.19a20.61,20.61,0,0,0,11,10.75l31.81,13.22c-.9,2.24-1.79,4.25-2.47,6.27a22.85,22.85,0,0,1-23.52,13.22l-16.57-1.57a21.89,21.89,0,0,0-18.82,3.58,21.44,21.44,0,0,0-8.73,17.7c0,3.59.89,11,1.79,19.27,1.12,10.3,2.69,23.07,2.47,28.22a8.09,8.09,0,0,0,7.62,8.06h.22a7.74,7.74,0,0,0,7.84-7.62c.22-6.49-1.35-18.59-2.69-30.23-.89-7.39-1.79-15-1.79-17.7a6,6,0,0,1,2.46-4.93,5.84,5.84,0,0,1,5.38-.89,4.25,4.25,0,0,0,1.56.45l17.48,1.79c16.57,1.57,32.48-7.39,39.2-22.4a106.1,106.1,0,0,0,3.8-10.08,11.37,11.37,0,0,0-6-16.13Z"/></g></g></svg>
